<svg preserveAspectRatio="xMidYMid meet" width="143" height="31" overflow="visible" style="display: block;" viewBox="0 0 143 30.5974" fill="none" xmlns="http://www.w3.org/2000/svg">
<g id="GaanaAI-logo">
<g id="Group">
<path id="Vector" d="M41.4612 24.1431C39.9291 22.8685 39.1553 20.9941 39.1553 18.5124V12.1843C39.1553 9.70254 39.9213 7.82061 41.4612 6.5535C42.9934 5.27889 45.2219 4.64908 48.1237 4.64908C50.2207 4.64908 51.9308 4.97148 53.2618 5.62378C54.5927 6.27608 55.6451 7.24329 56.4189 8.5179L53.1535 10.6772C52.5267 9.69504 51.8535 8.98276 51.1416 8.54789C50.4297 8.11302 49.4237 7.89559 48.1237 7.89559C46.4987 7.89559 45.3148 8.25548 44.5719 8.97526C43.8291 9.69504 43.4576 10.7672 43.4576 12.1843V18.5124C43.4576 19.9294 43.8291 21.0016 44.5719 21.7214C45.3148 22.4412 46.4987 22.8011 48.1237 22.8011C49.5475 22.8011 50.6308 22.5686 51.3737 22.1038C52.1166 21.6389 52.488 20.9641 52.488 20.0794V19.1647C52.488 17.9425 51.9076 17.3352 50.7469 17.3352H47.2725V14.0812H51.9695C53.5945 14.0812 54.7939 14.4486 55.5677 15.1759C56.3415 15.9032 56.7284 17.0353 56.7284 18.5723V20.3793C56.7284 22.1563 55.9546 23.5433 54.407 24.548C52.8594 25.5527 50.7624 26.0551 48.1237 26.0551C45.2142 26.0551 42.9934 25.4178 41.4612 24.1506V24.1431Z" fill="var(--fill-0, #46328C)"/>
<path id="Vector_2" d="M71.0515 22.7114C71.2681 23.0488 71.6473 23.4087 72.1967 23.8061L69.5425 26.0554C68.3818 25.4856 67.5925 24.7658 67.1592 23.896C66.7104 24.5034 66.0991 25.0207 65.3253 25.4331C64.5515 25.8454 63.5997 26.0554 62.4545 26.0554C61.0074 26.0554 59.8622 25.6955 59.0033 24.9757C58.1521 24.2559 57.7188 23.2362 57.7188 21.9166C57.7188 20.732 58.036 19.8248 58.6783 19.18C59.3205 18.5427 60.0557 18.1003 60.8914 17.8679C61.7271 17.6279 62.6479 17.463 63.6693 17.3655L65.1318 17.2156C65.7199 17.1556 66.13 17.0581 66.3699 16.9232C66.6021 16.7882 66.7336 16.5558 66.7491 16.2409C66.7104 15.6486 66.5092 15.1462 66.1533 14.7338C65.7973 14.3215 65.1241 14.1115 64.1259 14.1115C63.4759 14.1115 62.9033 14.2315 62.4158 14.4639C61.9283 14.7038 61.4253 15.0862 60.9223 15.6186L58.2063 13.7891C58.7943 13.0393 59.5372 12.462 60.4348 12.0571C61.3324 11.6523 62.5628 11.4498 64.1259 11.4498C68.5211 11.4498 70.7187 13.1743 70.7187 16.6233V21.4143C70.7187 21.9466 70.8271 22.3815 71.036 22.7114H71.0515ZM65.9134 22.5465C66.486 22.0441 66.7646 21.4293 66.7646 20.702V19.4574C66.4396 19.5774 65.8205 19.6823 64.8997 19.7798L63.9866 19.8698C63.2979 19.9297 62.7176 20.0797 62.2455 20.3271C61.7812 20.5746 61.5414 21.0319 61.5414 21.6992C61.5414 22.2091 61.7116 22.6064 62.0598 22.8839C62.408 23.1613 62.8723 23.2962 63.4604 23.2962C64.5205 23.2962 65.333 23.0488 65.8979 22.539L65.9134 22.5465Z" fill="var(--fill-0, #46328C)"/>
<path id="Vector_3" d="M85.7233 22.7114C85.94 23.0488 86.3192 23.4087 86.8686 23.8061L84.2144 26.0554C83.0537 25.4856 82.2644 24.7658 81.8311 23.896C81.3823 24.5034 80.771 25.0207 79.9972 25.4331C79.2233 25.8454 78.2716 26.0554 77.1263 26.0554C75.6793 26.0554 74.5341 25.6955 73.6751 24.9757C72.824 24.2559 72.3906 23.2362 72.3906 21.9166C72.3906 20.732 72.7079 19.8248 73.3501 19.18C73.9924 18.5427 74.7275 18.1003 75.5632 17.8679C76.3989 17.6279 77.3198 17.463 78.3412 17.3655L79.8037 17.2156C80.3918 17.1556 80.8019 17.0581 81.0418 16.9232C81.2739 16.7882 81.4055 16.5558 81.421 16.2409C81.3823 15.6486 81.1811 15.1462 80.8251 14.7338C80.4692 14.3215 79.796 14.1115 78.7978 14.1115C78.1478 14.1115 77.5751 14.2315 77.0876 14.4639C76.6001 14.7038 76.0972 15.0862 75.5942 15.6186L72.8781 13.7891C73.4662 13.0393 74.2091 12.462 75.1067 12.0571C76.0043 11.6523 77.2347 11.4498 78.7978 11.4498C83.193 11.4498 85.3906 13.1743 85.3906 16.6233V21.4143C85.3906 21.9466 85.4989 22.3815 85.7079 22.7114H85.7233ZM80.5852 22.5465C81.1579 22.0441 81.4364 21.4293 81.4364 20.702V19.4574C81.1114 19.5774 80.4924 19.6823 79.5716 19.7798L78.6585 19.8698C77.9698 19.9297 77.3894 20.0797 76.9174 20.3271C76.4531 20.5746 76.2132 21.0319 76.2132 21.6992C76.2132 22.2091 76.3835 22.6064 76.7317 22.8839C77.0799 23.1613 77.5442 23.2962 78.1323 23.2962C79.1924 23.2962 80.0049 23.0488 80.5698 22.539L80.5852 22.5465Z" fill="var(--fill-0, #46328C)"/>
<path id="Vector_4" d="M99.1171 12.6938C99.9605 13.5185 100.386 14.7031 100.386 16.2402V25.7023H96.4165V16.6001C96.4165 15.9328 96.2308 15.4004 95.8516 15.0031C95.4725 14.6057 94.9695 14.4107 94.3427 14.4107C93.004 14.4107 92.0367 15.183 91.4409 16.72V25.7098H87.4713V16.1052C87.4713 15.5729 87.3629 15.138 87.154 14.8081C86.9374 14.4707 86.5582 14.1108 86.0088 13.7134L88.6629 11.4641C89.3129 11.779 89.8237 12.1164 90.2028 12.4688C90.582 12.8212 90.8683 13.2411 91.0695 13.7134C91.4951 13.0461 92.0677 12.4988 92.7951 12.0864C93.5147 11.6741 94.4201 11.4641 95.4957 11.4641C97.0588 11.4641 98.2659 11.8765 99.1094 12.7087L99.1171 12.6938Z" fill="var(--fill-0, #46328C)"/>
<path id="Vector_5" d="M114.618 22.7114C114.835 23.0488 115.214 23.4087 115.763 23.8061L113.109 26.0554C111.948 25.4856 111.159 24.7658 110.726 23.896C110.277 24.5034 109.665 25.0207 108.892 25.4331C108.118 25.8454 107.166 26.0554 106.021 26.0554C104.574 26.0554 103.429 25.6955 102.57 24.9757C101.718 24.2559 101.285 23.2362 101.285 21.9166C101.285 20.732 101.602 19.8248 102.245 19.18C102.887 18.5427 103.622 18.1003 104.458 17.8679C105.293 17.6279 106.214 17.463 107.236 17.3655L108.698 17.2156C109.286 17.1556 109.696 17.0581 109.936 16.9232C110.168 16.7882 110.3 16.5558 110.315 16.2409C110.277 15.6486 110.076 15.1462 109.72 14.7338C109.364 14.3215 108.69 14.1115 107.692 14.1115C107.042 14.1115 106.47 14.2315 105.982 14.4639C105.495 14.7038 104.992 15.0862 104.489 15.6186L101.773 13.7891C102.361 13.0393 103.104 12.462 104.001 12.0571C104.899 11.6523 106.129 11.4498 107.692 11.4498C112.088 11.4498 114.285 13.1743 114.285 16.6233V21.4143C114.285 21.9466 114.393 22.3815 114.602 22.7114H114.618ZM109.472 22.5465C110.045 22.0441 110.323 21.4293 110.323 20.702V19.4574C109.998 19.5774 109.379 19.6823 108.458 19.7798L107.545 19.8698C106.857 19.9297 106.276 20.0797 105.804 20.3271C105.34 20.5746 105.1 21.0319 105.1 21.6992C105.1 22.2091 105.27 22.6064 105.618 22.8839C105.967 23.1613 106.431 23.2962 107.019 23.2962C108.079 23.2962 108.892 23.0488 109.457 22.539L109.472 22.5465Z" fill="var(--fill-0, #46328C)"/>
<path id="Vector_6" d="M122.927 20.8814L121.496 25.7025H117.193L122.409 9.20747C122.773 8.02283 123.159 7.10811 123.57 6.45581C123.98 5.80351 124.459 5.34615 125.017 5.06873C125.574 4.79132 126.27 4.65636 127.106 4.65636C127.942 4.65636 128.63 4.79132 129.18 5.06873C129.729 5.34615 130.209 5.81101 130.627 6.45581C131.045 7.10811 131.431 8.02283 131.803 9.20747L137.018 25.7025H132.716L131.284 20.8814H122.927ZM130.34 17.7774L127.779 9.26745C127.64 8.75761 127.415 8.49519 127.106 8.49519C126.796 8.49519 126.58 8.75011 126.433 9.26745L123.871 17.7774H130.34Z" fill="var(--fill-0, #46328C)"/>
<path id="Vector_7" d="M138.697 5.00148H143V25.6952H138.697V5.00148Z" fill="var(--fill-0, #46328C)"/>
</g>
<path id="Logomark" d="M31.8654 11.8764C31.8654 9.91199 31.8654 8.11253 31.8654 6.88291C31.8577 1.79945 23.191 0 15.7779 0C4.14761 0 0 3.6289 0 7.01787V22.8531C0 30.8081 16.7916 32.5401 22.3244 28.4838C23.6321 27.5241 24.2202 25.8446 24.2202 23.6028V11.9439C24.2202 11.3216 24.344 10.8192 24.5916 10.4293C24.8392 10.0394 25.2803 9.61957 25.9226 9.15472L22.8351 6.53801C22.0535 6.92789 21.4345 7.34027 20.9702 7.77514C20.5059 8.21 20.1732 8.72735 19.9565 9.31967C18.7029 7.46023 16.869 6.53051 14.4547 6.53051C12.8916 6.53051 11.5607 6.8904 10.4619 7.61019C9.36307 8.32997 8.54284 9.29717 7.99343 10.4968C7.45177 11.7039 7.1732 13.0235 7.1732 14.4706V15.1604C7.1732 17.5897 7.83093 19.5241 9.14641 20.9561C10.4619 22.3882 12.2262 23.108 14.4547 23.108C15.8012 23.108 16.8613 22.928 17.6273 22.5756C18.3934 22.2232 19.0511 21.6984 19.6006 21.0086V23.5878C19.6006 24.645 19.3761 25.5072 18.9351 26.0696C17.1012 28.4164 3.65237 27.0218 3.65237 22.8456V7.01787C3.65237 5.37587 8.62796 3.54642 15.7625 3.54642C22.897 3.54642 28.1821 5.24091 28.1821 6.88291C28.1821 8.11253 28.1821 9.91199 28.1821 11.8839C28.1821 16.3075 28.1976 21.8184 28.1821 23.108C28.1589 24.2326 26.3482 25.0649 25.2648 25.4623L26.5571 28.7837C30.8672 27.2017 31.8112 24.8624 31.8422 23.168C31.8654 21.8484 31.8577 16.5475 31.8422 11.8764H31.8654ZM15.8089 19.6815C14.5089 19.6815 13.5107 19.2466 12.8297 18.3769C12.141 17.5072 11.8006 16.4425 11.8006 15.1754V14.4856C11.8006 13.2485 12.1488 12.1913 12.8452 11.3066C13.5416 10.4218 14.5321 9.97947 15.8089 9.97947C17.7976 9.97947 19.0589 10.9167 19.6083 12.7986V16.8549C19.0666 18.7368 17.7976 19.674 15.8089 19.674V19.6815Z" fill="var(--fill-0, #46328C)"/>
</g>
</svg>
